{
  "accessors": [
    {
      "bufferView": 2,
      "componentType": 5126,
      "count": 24528,
      "max": [
        117.71959686279297,
        86.39042663574219,
        26.83110809326172
      ],
      "min": [
        88.33482360839844,
        66.07337188720703,
        -26.82042694091797
      ],
      "type": "VEC3"
    },
    {
      "bufferView": 2,
      "byteOffset": 294336,
      "componentType": 5126,
      "count": 24528,
      "max": [
        0.9999998211860657,
        1.0,
        1.0
      ],
      "min": [
        -0.9999998807907104,
        -1.0,
        -1.0
      ],
      "type": "VEC3"
    },
    {
      "bufferView": 1,
      "componentType": 5126,
      "count": 24528,
      "max": [
        0.9998245239257813,
        1.0
      ],
      "min": [
        0.0,
        0.0
      ],
      "type": "VEC2"
    },
    {
      "bufferView": 1,
      "byteOffset": 196224,
      "componentType": 5126,
      "count": 24528,
      "max": [
        0.9998245239257813,
        1.0
      ],
      "min": [
        0.0,
        0.0
      ],
      "type": "VEC2"
    },
    {
      "bufferView": 0,
      "componentType": 5125,
      "count": 24546,
      "type": "SCALAR"
    },
    {
      "bufferView": 2,
      "byteOffset": 588672,
      "componentType": 5126,
      "count": 65532,
      "max": [
        0.18266141414642334,
        0.28434276580810547,
        0.28434282541275024
      ],
      "min": [
        -0.18266142904758453,
        -0.28434279561042786,
        -0.28434285521507263
      ],
      "type": "VEC3"
    },
    {
      "bufferView": 2,
      "byteOffset": 1375056,
      "componentType": 5126,
      "count": 65532,
      "max": [
        1.0,
        1.0,
        1.0
      ],
      "min": [
        -1.0,
        -1.0,
        -1.0
      ],
      "type": "VEC3"
    },
    {
      "bufferView": 1,
      "byteOffset": 392448,
      "componentType": 5126,
      "count": 65532,
      "max": [
        1.0,
        1.0
      ],
      "min": [
        0.0,
        3.069639205932617e-05
      ],
      "type": "VEC2"
    },
    {
      "bufferView": 1,
      "byteOffset": 916704,
      "componentType": 5126,
      "count": 65532,
      "max": [
        1.0,
        1.0
      ],
      "min": [
        0.0,
        3.069639205932617e-05
      ],
      "type": "VEC2"
    },
    {
      "bufferView": 0,
      "byteOffset": 98184,
      "componentType": 5125,
      "count": 223545,
      "type": "SCALAR"
    },
    {
      "bufferView": 2,
      "byteOffset": 2161440,
      "componentType": 5126,
      "count": 12059,
      "max": [
        0.18238207697868347,
        0.08433202654123306,
        0.26256561279296875
      ],
      "min": [
        -0.1825430691242218,
        -0.28113919496536255,
        -0.28094324469566345
      ],
      "type": "VEC3"
    },
    {
      "bufferView": 2,
      "byteOffset": 2306148,
      "componentType": 5126,
      "count": 12059,
      "max": [
        1.0,
        0.999939501285553,
        1.0
      ],
      "min": [
        -1.0,
        -1.0,
        -1.0
      ],
      "type": "VEC3"
    },
    {
      "bufferView": 1,
      "byteOffset": 1440960,
      "componentType": 5126,
      "count": 12059,
      "max": [
        1.0,
        1.0
      ],
      "min": [
        0.0,
        0.0012926459312438965
      ],
      "type": "VEC2"
    },
    {
      "bufferView": 1,
      "byteOffset": 1537432,
      "componentType": 5126,
      "count": 12059,
      "max": [
        1.0,
        1.0
      ],
      "min": [
        0.0,
        0.0012926459312438965
      ],
      "type": "VEC2"
    },
    {
      "bufferView": 0,
      "byteOffset": 992364,
      "componentType": 5125,
      "count": 37851,
      "type": "SCALAR"
    },
    {
      "bufferView": 2,
      "byteOffset": 2450856,
      "componentType": 5126,
      "count": 65532,
      "max": [
        0.18266141414642334,
        0.28434276580810547,
        0.28434282541275024
      ],
      "min": [
        -0.18266142904758453,
        -0.28434279561042786,
        -0.28434285521507263
      ],
      "type": "VEC3"
    },
    {
      "bufferView": 2,
      "byteOffset": 3237240,
      "componentType": 5126,
      "count": 65532,
      "max": [
        1.0,
        1.0,
        1.0
      ],
      "min": [
        -1.0,
        -1.0,
        -1.0
      ],
      "type": "VEC3"
    },
    {
      "bufferView": 1,
      "byteOffset": 1633904,
      "componentType": 5126,
      "count": 65532,
      "max": [
        1.0,
        1.0
      ],
      "min": [
        0.0,
        3.069639205932617e-05
      ],
      "type": "VEC2"
    },
    {
      "bufferView": 1,
      "byteOffset": 2158160,
      "componentType": 5126,
      "count": 65532,
      "max": [
        1.0,
        1.0
      ],
      "min": [
        0.0,
        3.069639205932617e-05
      ],
      "type": "VEC2"
    },
    {
      "bufferView": 0,
      "byteOffset": 1143768,
      "componentType": 5125,
      "count": 223545,
      "type": "SCALAR"
    },
    {
      "bufferView": 2,
      "byteOffset": 4023624,
      "componentType": 5126,
      "count": 12059,
      "max": [
        0.18238207697868347,
        0.08433202654123306,
        0.26256561279296875
      ],
      "min": [
        -0.1825430691242218,
        -0.28113919496536255,
        -0.28094324469566345
      ],
      "type": "VEC3"
    },
    {
      "bufferView": 2,
      "byteOffset": 4168332,
      "componentType": 5126,
      "count": 12059,
      "max": [
        1.0,
        0.999939501285553,
        1.0
      ],
      "min": [
        -1.0,
        -1.0,
        -1.0
      ],
      "type": "VEC3"
    },
    {
      "bufferView": 1,
      "byteOffset": 2682416,
      "componentType": 5126,
      "count": 12059,
      "max": [
        1.0,
        1.0
      ],
      "min": [
        0.0,
        0.0012926459312438965
      ],
      "type": "VEC2"
    },
    {
      "bufferView": 1,
      "byteOffset": 2778888,
      "componentType": 5126,
      "count": 12059,
      "max": [
        1.0,
        1.0
      ],
      "min": [
        0.0,
        0.0012926459312438965
      ],
      "type": "VEC2"
    },
    {
      "bufferView": 0,
      "byteOffset": 2037948,
      "componentType": 5125,
      "count": 37851,
      "type": "SCALAR"
    },
    {
      "bufferView": 2,
      "byteOffset": 4313040,
      "componentType": 5126,
      "count": 16384,
      "max": [
        0.025118697434663773,
        0.020893890410661697,
        0.02511870302259922
      ],
      "min": [
        -0.02511870488524437,
        0.02017037943005562,
        -0.02511870302259922
      ],
      "type": "VEC3"
    },
    {
      "bufferView": 2,
      "byteOffset": 4509648,
      "componentType": 5126,
      "count": 16384,
      "max": [
        0.9996978044509888,
        0.9992055892944336,
        0.9996978044509888
      ],
      "min": [
        -0.9996979236602783,
        -1.3668455721926875e-05,
        -0.9996978044509888
      ],
      "type": "VEC3"
    },
    {
      "bufferView": 1,
      "byteOffset": 2875360,
      "componentType": 5126,
      "count": 16384,
      "max": [
        1.0000001192092896,
        1.0390124320983887
      ],
      "min": [
        -0.015354625880718231,
        0.05309486389160156
      ],
      "type": "VEC2"
    },
    {
      "bufferView": 0,
      "byteOffset": 2189352,
      "componentType": 5125,
      "count": 35304,
      "type": "SCALAR"
    },
    {
      "bufferView": 2,
      "byteOffset": 4706256,
      "componentType": 5126,
      "count": 18183,
      "max": [
        0.03925658389925957,
        0.020893890410661697,
        0.039256490767002106
      ],
      "min": [
        -0.03925658389925957,
        0.019667871296405792,
        -0.039256501942873
      ],
      "type": "VEC3"
    },
    {
      "bufferView": 2,
      "byteOffset": 4924452,
      "componentType": 5126,
      "count": 18183,
      "max": [
        0.9996971487998962,
        1.0,
        0.9996987581253052
      ],
      "min": [
        -0.9996969699859619,
        -1.0,
        -0.9996986389160156
      ],
      "type": "VEC3"
    },
    {
      "bufferView": 1,
      "byteOffset": 3006432,
      "componentType": 5126,
      "count": 18183,
      "max": [
        1.0000464916229248,
        0.9900000095367432
      ],
      "min": [
        -4.635315781342797e-05,
        0.3671441674232483
      ],
      "type": "VEC2"
    },
    {
      "bufferView": 0,
      "byteOffset": 2330568,
      "componentType": 5125,
      "count": 44460,
      "type": "SCALAR"
    },
    {
      "bufferView": 2,
      "byteOffset": 5142648,
      "componentType": 5126,
      "count": 1729,
      "max": [
        0.042016856372356415,
        0.019667871296405792,
        0.042016997933387756
      ],
      "min": [
        -0.042016856372356415,
        0.017589040100574493,
        -0.04201700538396835
      ],
      "type": "VEC3"
    },
    {
      "bufferView": 2,
      "byteOffset": 5163396,
      "componentType": 5126,
      "count": 1729,
      "max": [
        0.998070478439331,
        1.0,
        1.0
      ],
      "min": [
        -0.998070240020752,
        -0.9995986223220825,
        -1.0
      ],
      "type": "VEC3"
    },
    {
      "bufferView": 1,
      "byteOffset": 3151896,
      "componentType": 5126,
      "count": 1729,
      "max": [
        0.4694001078605652,
        0.969681978225708
      ],
      "min": [
        0.0305999293923378,
        0.5303179621696472
      ],
      "type": "VEC2"
    },
    {
      "bufferView": 0,
      "byteOffset": 2508408,
      "componentType": 5125,
      "count": 9225,
      "type": "SCALAR"
    },
    {
      "bufferView": 2,
      "byteOffset": 5184144,
      "componentType": 5126,
      "count": 2659,
      "max": [
        0.046784866601228714,
        0.017589040100574493,
        0.04678500071167946
      ],
      "min": [
        -0.046784866601228714,
        -0.020893890410661697,
        -0.04678500071167946
      ],
      "type": "VEC3"
    },
    {
      "bufferView": 2,
      "byteOffset": 5216052,
      "componentType": 5126,
      "count": 2659,
      "max": [
        1.0,
        1.0,
        1.0
      ],
      "min": [
        -1.0,
        -0.9998142123222351,
        -1.0
      ],
      "type": "VEC3"
    },
    {
      "bufferView": 1,
      "byteOffset": 3165728,
      "componentType": 5126,
      "count": 2659,
      "max": [
        1.4838709831237793,
        0.6080126762390137
      ],
      "min": [
        0.016128957271575928,
        0.40907204151153564
      ],
      "type": "VEC2"
    },
    {
      "bufferView": 0,
      "byteOffset": 2545308,
      "componentType": 5125,
      "count": 14736,
      "type": "SCALAR"
    },
    {
      "bufferView": 2,
      "byteOffset": 5247960,
      "componentType": 5126,
      "count": 372,
      "max": [
        0.034404754638671875,
        -0.020893890410661697,
        0.03444896638393402
      ],
      "min": [
        -0.034404754638671875,
        -0.02206742949783802,
        -0.03444896265864372
      ],
      "type": "VEC3"
    },
    {
      "bufferView": 2,
      "byteOffset": 5252424,
      "componentType": 5126,
      "count": 372,
      "max": [
        0.9987165927886963,
        1.0,
        1.0
      ],
      "min": [
        -0.9987165331840515,
        -1.0,
        -1.0
      ],
      "type": "VEC3"
    },
    {
      "bufferView": 1,
      "byteOffset": 3187000,
      "componentType": 5126,
      "count": 372,
      "max": [
        1.4838709831237793,
        0.6080127954483032
      ],
      "min": [
        0.4999999403953552,
        0.6080125570297241
      ],
      "type": "VEC2"
    },
    {
      "bufferView": 0,
      "byteOffset": 2604252,
      "componentType": 5125,
      "count": 1104,
      "type": "SCALAR"
    }
  ],
  "asset": {
    "extras": {
      "author": "audiode (https://sketchfab.com/audiode)",
      "license": "CC-BY-4.0 (http://creativecommons.org/licenses/by/4.0/)",
      "source": "https://sketchfab.com/3d-models/trophy-fe7d14c1e37149be87a331fbf7ebba2b",
      "title": "Trophy"
    },
    "generator": "Sketchfab-12.67.0",
    "version": "2.0"
  },
  "bufferViews": [
    {
      "buffer": 0,
      "byteLength": 2608668,
      "name": "floatBufferViews",
      "target": 34963
    },
    {
      "buffer": 0,
      "byteLength": 3189976,
      "byteOffset": 2608668,
      "byteStride": 8,
      "name": "floatBufferViews",
      "target": 34962
    },
    {
      "buffer": 0,
      "byteLength": 5256888,
      "byteOffset": 5798644,
      "byteStride": 12,
      "name": "floatBufferViews",
      "target": 34962
    }
  ],
  "buffers": [
    {
      "byteLength": 11055532,
      "uri": "scene.bin"
    }
  ],
  "extensionsUsed": [
    "KHR_materials_clearcoat"
  ],
  "images": [
    {
      "uri": "textures/Material.007_baseColor.png"
    }
  ],
  "materials": [
    {
      "doubleSided": true,
      "extensions": {
        "KHR_materials_clearcoat": {
          "clearcoatFactor": 1.0,
          "clearcoatRoughnessFactor": 0.04
        }
      },
      "name": "Fine_Gold",
      "pbrMetallicRoughness": {
        "baseColorFactor": [
          1.0,
          0.5978448804492563,
          0.0,
          1.0
        ],
        "roughnessFactor": 0.0
      }
    },
    {
      "doubleSided": true,
      "extensions": {
        "KHR_materials_clearcoat": {
          "clearcoatFactor": 0.218182,
          "clearcoatRoughnessFactor": 0.382429
        }
      },
      "name": "Car_rubber_wheel",
      "pbrMetallicRoughness": {
        "baseColorFactor": [
          0.0,
          0.0,
          0.0,
          1.0
        ],
        "metallicFactor": 0.0,
        "roughnessFactor": 0.697836
      }
    },
    {
      "doubleSided": true,
      "name": "Material.007",
      "pbrMetallicRoughness": {
        "baseColorTexture": {
          "index": 0
        },
        "metallicFactor": 0.0,
        "roughnessFactor": 0.5
      }
    },
    {
      "doubleSided": true,
      "name": "Material.010",
      "pbrMetallicRoughness": {
        "metallicFactor": 0.0,
        "roughnessFactor": 0.5
      }
    },
    {
      "doubleSided": true,
      "emissiveFactor": [
        1.0,
        1.0,
        1.0
      ],
      "name": "Material.001"
    },
    {
      "doubleSided": true,
      "name": "Material.011",
      "pbrMetallicRoughness": {
        "baseColorFactor": [
          0.0334372,
          0.0402445,
          0.06301,
          1.0
        ],
        "metallicFactor": 0.0,
        "roughnessFactor": 0.722727
      }
    },
    {
      "doubleSided": true,
      "name": "Material.004",
      "pbrMetallicRoughness": {
        "baseColorFactor": [
          0.0,
          0.0,
          0.0,
          1.0
        ],
        "metallicFactor": 0.0,
        "roughnessFactor": 0.722727
      }
    }
  ],
  "meshes": [
    {
      "name": "Object_0",
      "primitives": [
        {
          "attributes": {
            "NORMAL": 1,
            "POSITION": 0,
            "TEXCOORD_0": 2,
            "TEXCOORD_1": 3
          },
          "indices": 4,
          "material": 0,
          "mode": 4
        }
      ]
    },
    {
      "name": "Object_1",
      "primitives": [
        {
          "attributes": {
            "NORMAL": 6,
            "POSITION": 5,
            "TEXCOORD_0": 7,
            "TEXCOORD_1": 8
          },
          "indices": 9,
          "material": 0,
          "mode": 4
        }
      ]
    },
    {
      "name": "Object_2",
      "primitives": [
        {
          "attributes": {
            "NORMAL": 11,
            "POSITION": 10,
            "TEXCOORD_0": 12,
            "TEXCOORD_1": 13
          },
          "indices": 14,
          "material": 0,
          "mode": 4
        }
      ]
    },
    {
      "name": "Object_3",
      "primitives": [
        {
          "attributes": {
            "NORMAL": 16,
            "POSITION": 15,
            "TEXCOORD_0": 17,
            "TEXCOORD_1": 18
          },
          "indices": 19,
          "material": 1,
          "mode": 4
        }
      ]
    },
    {
      "name": "Object_4",
      "primitives": [
        {
          "attributes": {
            "NORMAL": 21,
            "POSITION": 20,
            "TEXCOORD_0": 22,
            "TEXCOORD_1": 23
          },
          "indices": 24,
          "material": 1,
          "mode": 4
        }
      ]
    },
    {
      "name": "Object_5",
      "primitives": [
        {
          "attributes": {
            "NORMAL": 26,
            "POSITION": 25,
            "TEXCOORD_0": 27
          },
          "indices": 28,
          "material": 2,
          "mode": 4
        }
      ]
    },
    {
      "name": "Object_6",
      "primitives": [
        {
          "attributes": {
            "NORMAL": 30,
            "POSITION": 29,
            "TEXCOORD_0": 31
          },
          "indices": 32,
          "material": 3,
          "mode": 4
        }
      ]
    },
    {
      "name": "Object_7",
      "primitives": [
        {
          "attributes": {
            "NORMAL": 34,
            "POSITION": 33,
            "TEXCOORD_0": 35
          },
          "indices": 36,
          "material": 4,
          "mode": 4
        }
      ]
    },
    {
      "name": "Object_8",
      "primitives": [
        {
          "attributes": {
            "NORMAL": 38,
            "POSITION": 37,
            "TEXCOORD_0": 39
          },
          "indices": 40,
          "material": 5,
          "mode": 4
        }
      ]
    },
    {
      "name": "Object_9",
      "primitives": [
        {
          "attributes": {
            "NORMAL": 42,
            "POSITION": 41,
            "TEXCOORD_0": 43
          },
          "indices": 44,
          "material": 6,
          "mode": 4
        }
      ]
    }
  ],
  "nodes": [
    {
      "children": [
        1
      ],
      "matrix": [
        1.0,
        0.0,
        0.0,
        0.0,
        0.0,
        2.220446049250313e-16,
        -1.0,
        0.0,
        0.0,
        1.0,
        2.220446049250313e-16,
        0.0,
        0.0,
        0.0,
        0.0,
        1.0
      ],
      "name": "Sketchfab_model"
    },
    {
      "children": [
        2
      ],
      "name": "root"
    },
    {
      "children": [
        3,
        6,
        13
      ],
      "matrix": [
        1.0,
        0.0,
        0.0,
        0.0,
        0.0,
        2.220446049250313e-16,
        1.0,
        0.0,
        0.0,
        -1.0,
        2.220446049250313e-16,
        0.0,
        0.0,
        0.0,
        0.0,
        1.0
      ],
      "name": "GLTF_SceneRootNode"
    },
    {
      "children": [
        4
      ],
      "matrix": [
        0.0330667719244957,
        0.0,
        0.0,
        0.0,
        0.0,
        0.0330667719244957,
        0.0,
        0.0,
        0.0,
        0.0,
        0.0330667719244957,
        0.0,
        0.0,
        0.0,
        0.0,
        1.0
      ],
      "name": "root_1"
    },
    {
      "children": [
        5
      ],
      "matrix": [
        1.0,
        0.0,
        0.0,
        0.0,
        -0.0,
        1.685873969314855e-07,
        -0.9999999999999857,
        0.0,
        0.0,
        0.9999999999999857,
        1.685873969314855e-07,
        0.0,
        -103.02721405029297,
        36.633277893066406,
        76.23190307617188,
        1.0
      ],
      "name": "Mesh_0_0"
    },
    {
      "mesh": 0,
      "name": "Object_5"
    },
    {
      "children": [
        7,
        10
      ],
      "matrix": [
        -9.365245131783134e-06,
        0.0,
        1.2625290155063416,
        0.0,
        0.0,
        1.2625290155410767,
        0.0,
        0.0,
        -1.2625290155063416,
        0.0,
        -9.365245131783134e-06,
        0.0,
        0.0,
        0.9827575087547302,
        0.0,
        1.0
      ],
      "name": "Red wide tire._4"
    },
    {
      "children": [
        8,
        9
      ],
      "matrix": [
        0.58881676197052,
        0.0,
        0.0,
        0.0,
        0.0,
        0.846687376499176,
        0.0,
        0.0,
        0.0,
        0.0,
        0.846687376499176,
        0.0,
        0.0,
        0.5413501262664795,
        0.0,
        1.0
      ],
      "name": "Red wide tire..001_2"
    },
    {
      "mesh": 1,
      "name": "Object_8"
    },
    {
      "mesh": 2,
      "name": "Object_9"
    },
    {
      "children": [
        11,
        12
      ],
      "matrix": [
        2.3086639868977997e-11,
        -0.8402977585561675,
        6.2289313640403125e-06,
        0.0,
        1.2083039283420467,
        -3.3197774879647664e-11,
        -8.95687529796e-06,
        0.0,
        8.95687529796e-06,
        8.95687529796e-06,
        1.2083039283088488,
        0.0,
        0.0,
        -0.658658504486084,
        0.0,
        1.0
      ],
      "name": "Red wide tire..002_3"
    },
    {
      "mesh": 3,
      "name": "Object_11"
    },
    {
      "mesh": 4,
      "name": "Object_12"
    },
    {
      "children": [
        14,
        16,
        18,
        20,
        22
      ],
      "name": "Speaker_10"
    },
    {
      "children": [
        15
      ],
      "matrix": [
        1.0,
        0.0,
        0.0,
        0.0,
        0.0,
        1.0,
        0.0,
        0.0,
        0.0,
        0.0,
        1.0,
        0.0,
        0.0,
        0.022067442536354065,
        0.0,
        1.0
      ],
      "name": "Cylinder_5"
    },
    {
      "mesh": 5,
      "name": "Object_15"
    },
    {
      "children": [
        17
      ],
      "matrix": [
        1.0,
        0.0,
        0.0,
        0.0,
        0.0,
        1.0,
        0.0,
        0.0,
        0.0,
        0.0,
        1.0,
        0.0,
        0.0,
        0.022067442536354065,
        0.0,
        1.0
      ],
      "name": "Cylinder.001_6"
    },
    {
      "mesh": 6,
      "name": "Object_17"
    },
    {
      "children": [
        19
      ],
      "matrix": [
        1.0,
        0.0,
        0.0,
        0.0,
        0.0,
        1.0,
        0.0,
        0.0,
        0.0,
        0.0,
        1.0,
        0.0,
        0.0,
        0.022067442536354065,
        0.0,
        1.0
      ],
      "name": "Cylinder.002_7"
    },
    {
      "mesh": 7,
      "name": "Object_19"
    },
    {
      "children": [
        21
      ],
      "matrix": [
        1.0,
        0.0,
        0.0,
        0.0,
        0.0,
        1.0,
        0.0,
        0.0,
        0.0,
        0.0,
        1.0,
        0.0,
        0.0,
        0.022067442536354065,
        0.0,
        1.0
      ],
      "name": "Cylinder.003_8"
    },
    {
      "mesh": 8,
      "name": "Object_21"
    },
    {
      "children": [
        23
      ],
      "matrix": [
        1.0,
        0.0,
        0.0,
        0.0,
        0.0,
        1.0,
        0.0,
        0.0,
        0.0,
        0.0,
        1.0,
        0.0,
        0.0,
        0.022067442536354065,
        0.0,
        1.0
      ],
      "name": "Cylinder.004_9"
    },
    {
      "mesh": 9,
      "name": "Object_23"
    }
  ],
  "samplers": [
    {
      "magFilter": 9729,
      "minFilter": 9987,
      "wrapS": 10497,
      "wrapT": 10497
    }
  ],
  "scene": 0,
  "scenes": [
    {
      "name": "Sketchfab_Scene",
      "nodes": [
        0
      ]
    }
  ],
  "textures": [
    {
      "sampler": 0,
      "source": 0
    }
  ]
}
